<svg width="17" height="17" viewBox="0 0 17 17" fill="none" xmlns="http://www.w3.org/2000/svg">
<path d="M6.47045 14.7144V12.5485C6.47045 11.9956 6.92193 11.5474 7.47887 11.5474H9.51475C9.7822 11.5474 10.0387 11.6529 10.2278 11.8406C10.4169 12.0284 10.5232 12.283 10.5232 12.5485V14.7144C10.5215 14.9443 10.6123 15.1653 10.7754 15.3284C10.9385 15.4915 11.1605 15.5833 11.3921 15.5833H12.781C13.4297 15.585 14.0524 15.3303 14.5117 14.8755C14.971 14.4208 15.2291 13.8032 15.2291 13.1592V6.98898C15.2291 6.46878 14.9969 5.97535 14.5949 5.6416L9.86991 1.89537C9.04799 1.23852 7.87035 1.25973 7.07297 1.94574L2.45578 5.6416C2.03484 5.96551 1.78325 6.46041 1.77081 6.98898V13.153C1.77081 14.4952 2.86687 15.5833 4.21894 15.5833H5.57619C6.0571 15.5833 6.44794 15.1981 6.45142 14.7207L6.47045 14.7144Z" fill="#1D956A"/>
</svg>
