<svg width="22" height="22" viewBox="0 0 22 22" fill="none" xmlns="http://www.w3.org/2000/svg">
<path d="M19.9375 15.1593V15.5031C19.9375 15.6749 19.7656 15.8468 19.5938 15.8468C19.4219 15.8468 19.25 15.6749 19.25 15.5031V15.1593H18.5625V15.5031C18.5625 15.6749 18.3906 15.8468 18.2188 15.8468C18.0469 15.8468 17.875 15.6749 17.875 15.5031V15.1593H17.1875V15.5031C17.1875 15.6749 17.0156 15.8468 16.8438 15.8468C16.6719 15.8468 16.5 15.6749 16.5 15.5031V15.1593H15.8125V15.5031C15.8125 15.6749 15.6406 15.8468 15.4688 15.8468C15.2969 15.8468 15.125 15.6749 15.125 15.5031V15.1593H14.4375V16.5343H20.625V17.5656C20.625 17.7374 20.7969 17.9093 20.9688 17.9093C21.1406 17.9093 21.3125 17.7374 21.3125 17.5656V15.1593H19.9375ZM15.125 12.0312V9.9687C15.125 9.79683 14.9531 9.62495 14.7812 9.62495H14.4375V12.375H14.7812C14.9531 12.375 15.125 12.2031 15.125 12.0312ZM9.93437 4.09058H7.5625V5.1562C7.5625 5.32808 7.39062 5.49995 7.21875 5.49995H4.84688C3.3 5.49995 2.0625 6.73745 2.0625 8.28433V10.6562C2.0625 10.8281 1.89062 11 1.71875 11H0.6875V13.4062C0.6875 15.5031 2.40625 17.2218 4.50313 17.2218H13.75V7.9062C13.75 5.80933 12.0312 4.09058 9.93437 4.09058ZM2.40625 15.8125C2.23438 15.8125 2.0625 15.6406 2.0625 15.4687C2.0625 15.2968 2.23438 15.125 2.40625 15.125C2.57812 15.125 2.75 15.2968 2.75 15.4687C2.75 15.6406 2.57812 15.8125 2.40625 15.8125ZM7.21875 15.125C4.74375 15.125 2.75 13.1312 2.75 10.6562C2.75 8.1812 4.74375 6.18745 7.21875 6.18745C9.69375 6.18745 11.6875 8.1812 11.6875 10.6562C11.6875 13.1312 9.69375 15.125 7.21875 15.125ZM12.0312 6.18745C11.8594 6.18745 11.6875 6.01558 11.6875 5.8437C11.6875 5.67183 11.8594 5.49995 12.0312 5.49995C12.2031 5.49995 12.375 5.67183 12.375 5.8437C12.375 6.01558 12.2031 6.18745 12.0312 6.18745Z" fill="#1D956A"/>
<path d="M1.375 8.28433C1.375 6.35933 2.92188 4.81245 4.84688 4.81245H6.875V4.09058H4.50313C2.40625 4.09058 0.6875 5.80933 0.6875 7.9062V10.3125H1.375V8.28433ZM7.21875 6.87495C5.12187 6.87495 3.4375 8.55933 3.4375 10.6562C3.4375 12.7531 5.12187 14.4375 7.21875 14.4375C9.31563 14.4375 11 12.7531 11 10.6562C11 8.55933 9.31563 6.87495 7.21875 6.87495ZM7.21875 11.6875C6.63438 11.6875 6.1875 11.2406 6.1875 10.6562C6.1875 10.0718 6.63438 9.62495 7.21875 9.62495C7.80312 9.62495 8.25 10.0718 8.25 10.6562C8.25 11.2406 7.80312 11.6875 7.21875 11.6875Z" fill="#1D956A"/>
<path d="M7.21875 11C7.4086 11 7.5625 10.8461 7.5625 10.6562C7.5625 10.4664 7.4086 10.3125 7.21875 10.3125C7.0289 10.3125 6.875 10.4664 6.875 10.6562C6.875 10.8461 7.0289 11 7.21875 11Z" fill="#1D956A"/>
</svg>
