<svg width="17" height="17" viewBox="0 0 17 17" fill="none" xmlns="http://www.w3.org/2000/svg">
<path d="M2.19468 11.8535C2.09213 11.8536 1.99176 11.8239 1.90568 11.7682C1.8196 11.7125 1.75149 11.633 1.70958 11.5394C1.20239 10.4067 0.986726 9.16503 1.08224 7.92761C1.17775 6.6902 1.58141 5.49635 2.25642 4.45487C2.93143 3.41339 3.85634 2.55738 4.94686 1.96486C6.03739 1.37233 7.25885 1.06212 8.49995 1.0625C8.64085 1.0625 8.77597 1.11847 8.8756 1.2181C8.97523 1.31773 9.0312 1.45285 9.0312 1.59375V8.5C9.03122 8.60258 9.00154 8.70298 8.94574 8.78906C8.88994 8.87514 8.81042 8.94323 8.71677 8.9851L2.41149 11.8057C2.34342 11.8368 2.26952 11.8531 2.19468 11.8535Z" fill="#1D956A"/>
<path d="M10.4121 2.26384C10.3736 2.25603 10.3338 2.25687 10.2957 2.26628C10.2575 2.2757 10.2219 2.29347 10.1915 2.31831C10.161 2.34315 10.1364 2.37444 10.1195 2.40992C10.1026 2.4454 10.0938 2.48419 10.0937 2.52349V8.50006C10.0934 8.80765 10.0043 9.10862 9.83701 9.36674C9.66972 9.62487 9.4314 9.82915 9.15074 9.95502L3.42419 12.5176C3.3887 12.5335 3.35711 12.5569 3.33167 12.5863C3.30622 12.6157 3.28754 12.6503 3.27693 12.6877C3.26632 12.7251 3.26405 12.7644 3.27028 12.8027C3.2765 12.8411 3.29107 12.8776 3.31296 12.9098C3.75122 13.5543 4.29521 14.1202 4.92199 14.5835C6.10949 15.4669 7.55116 15.942 9.0312 15.9376C12.8393 15.9376 15.9375 12.8394 15.9375 9.03131C15.9375 5.69605 13.5608 2.90533 10.4121 2.26384Z" fill="#1D956A"/>
</svg>
