<svg width="50" height="50" viewBox="0 0 50 50" fill="none" xmlns="http://www.w3.org/2000/svg">
<path d="M4.16663 4.16663H7.79164C10.0416 4.16663 11.8125 6.10413 11.625 8.33329L9.89579 29.0833C9.60413 32.4791 12.2916 35.3958 15.7083 35.3958H37.8958C40.8958 35.3958 43.5208 32.9375 43.75 29.9583L44.8749 14.3333C45.1249 10.875 42.4999 8.06245 39.0208 8.06245H12.125" stroke="white" stroke-width="2" stroke-miterlimit="10" stroke-linecap="round" stroke-linejoin="round"/>
<path d="M33.8542 45.8333C35.2924 45.8333 36.4583 44.6674 36.4583 43.2292C36.4583 41.7909 35.2924 40.625 33.8542 40.625C32.4159 40.625 31.25 41.7909 31.25 43.2292C31.25 44.6674 32.4159 45.8333 33.8542 45.8333Z" stroke="white" stroke-width="2" stroke-miterlimit="10" stroke-linecap="round" stroke-linejoin="round"/>
<path d="M17.1875 45.8333C18.6258 45.8333 19.7917 44.6674 19.7917 43.2292C19.7917 41.7909 18.6258 40.625 17.1875 40.625C15.7493 40.625 14.5834 41.7909 14.5834 43.2292C14.5834 44.6674 15.7493 45.8333 17.1875 45.8333Z" stroke="white" stroke-width="2" stroke-miterlimit="10" stroke-linecap="round" stroke-linejoin="round"/>
<path d="M18.75 16.6666H43.75" stroke="white" stroke-width="2" stroke-miterlimit="10" stroke-linecap="round" stroke-linejoin="round"/>
</svg>
