<svg width="66" height="64" viewBox="0 0 66 64" fill="none" xmlns="http://www.w3.org/2000/svg">
<path d="M30.1561 10.7872L22.0051 2.707L0.0852051 24.0993V39.8994L0.142455 39.955L30.1561 10.7872ZM13.8496 31.9996L21.9992 24.0457L41.0147 42.6045L32.8652 50.5583L13.8496 31.9996ZM41.0235 63.9441L11.1379 34.6514L2.85882 42.6066L24.7778 64H40.9663L41.0235 63.9441ZM24.7217 0.055625L54.608 29.3491L62.8872 21.3943L40.9682 0H24.7787L24.7217 0.055625ZM24.717 21.3956L32.8666 13.4417L51.8823 32.0006L43.7327 39.9545L24.717 21.3956ZM43.7401 61.2928L65.6603 39.8991V23.9905L35.5894 53.2127L43.7401 61.2928ZM65.6603 64V45.2019L46.3995 64H65.6603ZM0.0852051 45.2021V64H19.3445L0.0852051 45.2021ZM65.6038 18.7429L65.6603 18.6877V0H46.4012L65.6038 18.7429ZM0.0852051 0V18.7968L19.3454 0H0.0852051Z" fill="#1D956A"/>
</svg>
